<svg width="24" height="24" viewBox="0 0 24 24" fill="none" xmlns="http://www.w3.org/2000/svg">
<g clip-path="url(#clip0_4365_100164)">
<path fill-rule="evenodd" clip-rule="evenodd" d="M2.00391 12.0045C2.00382 11.7317 2.11517 11.4708 2.31216 11.2821L6.48876 7.28125C6.77802 7.00417 7.20471 6.92642 7.5731 7.08367C7.94149 7.24093 8.18051 7.60283 8.18051 8.00339L8.18051 9.68801L8.18051 11.0035L21.0015 11.0017C21.5538 11.0016 22.0016 11.4493 22.0017 12.0015C22.0017 12.5538 21.5541 13.0016 21.0018 13.0017L8.18051 13.0035L8.18051 14.3171L8.18051 16C8.18051 16.4004 7.94162 16.7622 7.57338 16.9196C7.20514 17.0769 6.77856 16.9994 6.48921 16.7226L2.31261 12.7268C2.11551 12.5382 2.00399 12.2773 2.00391 12.0045Z" fill="#020118"/>
</g>
<defs>
<clipPath id="clip0_4365_100164">
<rect width="24" height="24" fill="white"/>
</clipPath>
</defs>
</svg>
