<svg width="25" height="24" viewBox="0 0 25 24" fill="none" xmlns="http://www.w3.org/2000/svg">
<g clip-path="url(#clip0_6814_19744)">
<path fill-rule="evenodd" clip-rule="evenodd" d="M2.33398 10.0626V16.3995C2.33398 18.5728 4.12485 20.3346 6.33398 20.3346H18.334C20.5431 20.3346 22.334 18.5728 22.334 16.3995V10.0626H2.33398ZM2.33398 8.58695H22.334V7.60315C22.334 5.42981 20.5431 3.66797 18.334 3.66797H6.33398C4.12485 3.66797 2.33398 5.42981 2.33398 7.60315V8.58695ZM4.83398 17.2109C4.83398 16.8658 5.11381 16.5859 5.45898 16.5859H8.20898C8.55416 16.5859 8.83398 16.8658 8.83398 17.2109C8.83398 17.5561 8.55416 17.8359 8.20898 17.8359H5.45898C5.11381 17.8359 4.83398 17.5561 4.83398 17.2109ZM10.459 16.5859C10.1138 16.5859 9.83398 16.8658 9.83398 17.2109C9.83398 17.5561 10.1138 17.8359 10.459 17.8359H12.209C12.5542 17.8359 12.834 17.5561 12.834 17.2109C12.834 16.8658 12.5542 16.5859 12.209 16.5859H10.459Z" fill="#453BF5"/>
</g>
<defs>
<clipPath id="clip0_6814_19744">
<rect width="20" height="20" fill="white" transform="translate(2.33398 2)"/>
</clipPath>
</defs>
</svg>
