<svg width="24" height="24" viewBox="0 0 24 24" fill="none" xmlns="http://www.w3.org/2000/svg">
<g clip-path="url(#clip0_6814_19732)">
<path d="M10.7998 15.6H6.08682C3.59982 15.6 2.99982 15 2.99982 12.513V6.087C2.99982 3.6 3.59982 3 6.08682 3H10.1998C12.5998 3 13.1998 3.6 13.2868 6.087" fill="#453BF5"/>
<path d="M10.7998 15.6H6.08682C3.59982 15.6 2.99982 15 2.99982 12.513V6.087C2.99982 3.6 3.59982 3 6.08682 3H10.1998C12.5998 3 13.1998 3.6 13.2868 6.087V15.6H10.7998Z" stroke="#453BF5" stroke-width="1.5" stroke-linecap="round" stroke-linejoin="round"/>
<path d="M15.0009 22.6996H19.1139C20.2209 22.6996 21.1426 22.4238 21.7838 21.7825C22.425 21.1413 22.7009 20.2196 22.7009 19.1126V12.6866C22.7009 11.5796 22.425 10.6579 21.7838 10.0167C21.1426 9.37544 20.2209 9.09961 19.1139 9.09961H15.0009C13.8939 9.09961 12.9722 9.37544 12.331 10.0167C11.6897 10.6579 11.4139 11.5796 11.4139 12.6866V19.1126C11.4139 20.2196 11.6897 21.1413 12.331 21.7825C12.9722 22.4238 13.8939 22.6996 15.0009 22.6996Z" fill="#453BF5" stroke="#F4F7FF" stroke-linecap="round" stroke-linejoin="round"/>
<path d="M6.92253 9.47969L7.95021 8.45201L8.97789 9.47969L7.95021 10.5074L6.92253 9.47969ZM9.01599 9.44158L9.01592 9.44165L9.01599 9.44158ZM7.98824 8.41397L7.98831 8.4139C7.98829 8.41393 7.98827 8.41395 7.98824 8.41397Z" fill="#453BF5" stroke="#F4F7FF" stroke-width="1.5"/>
<path d="M17.9306 16.3295L17.2517 16.7585L16.6018 16.4087C16.5509 16.4708 16.4806 16.5223 16.3867 16.5518C16.0886 16.6454 15.8315 16.4791 15.7684 16.31C15.7188 16.1771 15.7715 15.9563 16.0477 15.8696C16.1148 15.8485 16.1866 15.8409 16.2607 15.8466L16.4602 15.8622L16.4148 15.9173L16.7437 15.8844L18.4086 16.0144L18.1201 15.7467L18.2265 15.7361C18.4877 15.71 18.6782 15.8565 18.7312 15.9986C18.7808 16.1315 18.7282 16.3522 18.4519 16.439C18.2535 16.5013 18.0509 16.4433 17.9306 16.3295ZM17.5732 14.5126L17.2336 14.9243L16.8292 14.5491C16.7742 14.4981 16.7465 14.4532 16.7325 14.4156C16.6829 14.2827 16.7355 14.062 17.0118 13.9752C17.3101 13.8815 17.5669 14.0478 17.6299 14.2167C17.6659 14.3134 17.6505 14.419 17.5732 14.5126Z" fill="#F4F7FF" stroke="#F4F7FF" stroke-width="1.5"/>
</g>
<defs>
<clipPath id="clip0_6814_19732">
<rect width="24" height="24" fill="white"/>
</clipPath>
</defs>
</svg>
