<svg width="24" height="24" viewBox="0 0 24 24" fill="none" xmlns="http://www.w3.org/2000/svg">
<path fill-rule="evenodd" clip-rule="evenodd" d="M9 7C9 5.34315 10.3431 4 12 4C13.6569 4 15 5.34315 15 7V8.99805H9V7ZM7 8.99805V7C7 4.23858 9.23858 2 12 2C14.7614 2 17 4.23858 17 7V8.99805H19C19.5523 8.99805 20 9.44576 20 9.99805V18.998C20 20.6549 18.6569 21.998 17 21.998H7C5.34315 21.998 4 20.6549 4 18.998V9.99805C4 9.44576 4.44772 8.99805 5 8.99805H7ZM13 15.4961C13 14.6677 13.6716 13.9961 14.5 13.9961H14.51C15.3384 13.9961 16.01 14.6677 16.01 15.4961V15.5061C16.01 16.3345 15.3384 17.0061 14.51 17.0061H14.5C13.6716 17.0061 13 16.3345 13 15.5061V15.4961Z" fill="#453BF5"/>
</svg>
